<?xml version="1.0" encoding="UTF-8" standalone="no"?>
<!-- Created with Inkscape (http://www.inkscape.org/) -->

<svg
   width="846.31018"
   height="162"
   viewBox="0 0 223.91955 42.862496"
   version="1.1"
   id="svg5"
   inkscape:version="1.2.2 (b0a8486541, 2022-12-01)"
   xml:space="preserve"
   sodipodi:docname="logo-full.svg"
   xmlns:inkscape="http://www.inkscape.org/namespaces/inkscape"
   xmlns:sodipodi="http://sodipodi.sourceforge.net/DTD/sodipodi-0.dtd"
   xmlns="http://www.w3.org/2000/svg"
   xmlns:svg="http://www.w3.org/2000/svg"><sodipodi:namedview
     id="namedview7"
     pagecolor="#ffffff"
     bordercolor="#000000"
     borderopacity="0.25"
     inkscape:showpageshadow="2"
     inkscape:pageopacity="0.0"
     inkscape:pagecheckerboard="true"
     inkscape:deskcolor="#d1d1d1"
     inkscape:document-units="px"
     showgrid="false"
     inkscape:zoom="2.55937"
     inkscape:cx="251.62442"
     inkscape:cy="75.018461"
     inkscape:window-width="1916"
     inkscape:window-height="1033"
     inkscape:window-x="0"
     inkscape:window-y="23"
     inkscape:window-maximized="1"
     inkscape:current-layer="layer1" /><defs
     id="defs2" /><g
     inkscape:label="Layer 1"
     inkscape:groupmode="layer"
     id="layer1"
     transform="translate(299.78259,-103.27545)"><path
       d="m -241.38527,136.42225 c -1.52049,0 -2.79615,-0.25771 -3.827,-0.77313 -1.00508,-0.54119 -1.75244,-1.26279 -2.24209,-2.16478 -0.48965,-0.90198 -0.73448,-1.88128 -0.73448,-2.9379 0,-1.26278 0.32214,-2.34517 0.96643,-3.24715 0.67005,-0.902 1.62356,-1.59782 2.86059,-2.08747 1.26278,-0.48965 2.7704,-0.73447 4.52282,-0.73447 h 5.06404 c 0,-1.15971 -0.18041,-2.11324 -0.5412,-2.8606 -0.33503,-0.77313 -0.83758,-1.3401 -1.50761,-1.70089 -0.67005,-0.38657 -1.48184,-0.57985 -2.43538,-0.57985 -1.18546,0 -2.21632,0.29636 -3.09254,0.8891 -0.85043,0.56696 -1.36586,1.46896 -1.54626,2.70596 h -3.86567 c 0.15463,-1.4174 0.60562,-2.60288 1.353,-3.55641 0.77312,-0.9793 1.7782,-1.72666 3.01521,-2.24209 1.23702,-0.54119 2.61576,-0.81178 4.13626,-0.81178 1.82975,0 3.36313,0.32213 4.60015,0.96641 1.26278,0.64428 2.20343,1.55916 2.82193,2.74462 0.61851,1.1597 0.92776,2.53846 0.92776,4.13627 v 11.79029 h -3.2085 l -0.38656,-3.2085 h -0.15463 c -0.3608,0.6185 -0.78602,1.1597 -1.27567,1.62356 -0.48965,0.43813 -1.01797,0.8118 -1.58493,1.12105 -0.54119,0.30927 -1.14681,0.5412 -1.81686,0.69583 -0.64428,0.15462 -1.32721,0.23193 -2.04881,0.23193 z m 0.92777,-3.13119 c 0.90199,0 1.688,-0.16752 2.35804,-0.50253 0.69584,-0.33503 1.27569,-0.78602 1.73956,-1.35299 0.48966,-0.59273 0.85045,-1.2499 1.08239,-1.97149 0.25771,-0.72158 0.39945,-1.46894 0.42521,-2.24208 h -4.60012 c -1.13394,0 -2.04882,0.12886 -2.74463,0.38657 -0.67005,0.25771 -1.1597,0.61851 -1.46896,1.08238 -0.30925,0.46388 -0.46386,1.00507 -0.46386,1.62358 0,0.59273 0.14173,1.12104 0.42521,1.58492 0.30925,0.4381 0.73447,0.78602 1.27566,1.04374 0.56698,0.23193 1.22414,0.3479 1.9715,0.3479 z m 12.62971,2.66732 v -27.05967 h 3.86568 v 27.05967 z m 15.98186,8.1952 c -1.75243,0 -3.31158,-0.23193 -4.67746,-0.69581 -1.3401,-0.43812 -2.38384,-1.09527 -3.13118,-1.97149 -0.74737,-0.85045 -1.12104,-1.8813 -1.12104,-3.09253 0,-0.67006 0.15462,-1.3401 0.46387,-2.01015 0.30925,-0.64427 0.81179,-1.26279 1.5076,-1.85553 0.69583,-0.59273 1.63648,-1.13393 2.82195,-1.62357 l 2.08746,1.70089 c -1.26278,0.51542 -2.12612,1.06949 -2.59,1.66224 -0.43812,0.59274 -0.65716,1.2499 -0.65716,1.9715 0,0.64426 0.20616,1.18546 0.6185,1.62356 0.41234,0.46389 1.00508,0.8118 1.77821,1.04373 0.7989,0.25772 1.76532,0.38657 2.89925,0.38657 1.13393,0 2.0617,-0.14174 2.7833,-0.42522 0.72157,-0.28348 1.24988,-0.67005 1.5849,-1.1597 0.3608,-0.48965 0.5412,-1.04373 0.5412,-1.66223 0,-0.79891 -0.30925,-1.41742 -0.92775,-1.85552 -0.59275,-0.4381 -1.73955,-0.70872 -3.44045,-0.8118 -1.46896,-0.10304 -2.70597,-0.24482 -3.71105,-0.42521 -1.00507,-0.20618 -1.86841,-0.42524 -2.59,-0.65718 -0.69582,-0.2577 -1.28856,-0.54118 -1.7782,-0.85045 -0.46388,-0.33501 -0.86333,-0.67004 -1.19836,-1.00507 v -0.88909 l 3.86566,-3.90432 2.24209,1.00507 -3.32447,3.90432 0.61851,-1.62358 c 0.2577,0.15462 0.51541,0.29636 0.77314,0.42522 0.28347,0.12885 0.65716,0.25771 1.12105,0.38657 0.46386,0.12885 1.08237,0.25771 1.85551,0.38657 0.77312,0.12885 1.75242,0.24481 2.9379,0.3479 1.72667,0.12886 3.11832,0.41234 4.17492,0.85045 1.05662,0.43812 1.82975,1.04372 2.3194,1.81686 0.48965,0.74737 0.73448,1.67514 0.73448,2.78329 0,0.97928 -0.30925,1.94571 -0.92776,2.89925 -0.59272,0.95353 -1.5205,1.73955 -2.78327,2.35805 -1.2628,0.64428 -2.88637,0.96641 -4.87075,0.96641 z m 0,-14.10968 c -1.62358,0 -3.01522,-0.30925 -4.17492,-0.92776 -1.13393,-0.6185 -2.01015,-1.44317 -2.62865,-2.47402 -0.59274,-1.03085 -0.88909,-2.19055 -0.88909,-3.4791 0,-1.26279 0.29635,-2.4096 0.88909,-3.44045 0.6185,-1.03084 1.49472,-1.85551 2.62865,-2.47402 1.1597,-0.61851 2.55134,-0.92776 4.17492,-0.92776 1.62358,0 3.00233,0.30925 4.13625,0.92776 1.1597,0.61851 2.03595,1.44318 2.62867,2.47402 0.59273,1.03085 0.8891,2.17766 0.8891,3.44045 0,1.28855 -0.29637,2.44825 -0.8891,3.4791 -0.59272,1.03085 -1.46897,1.85552 -2.62867,2.47402 -1.13392,0.61851 -2.51267,0.92776 -4.13625,0.92776 z m 0,-2.89924 c 1.23702,0 2.2292,-0.33503 2.97657,-1.00508 0.77313,-0.67005 1.15968,-1.64935 1.15968,-2.93791 0,-1.3401 -0.38655,-2.33228 -1.15968,-2.97656 -0.74737,-0.67005 -1.73955,-1.00508 -2.97657,-1.00508 -1.26278,0 -2.28075,0.33503 -3.05388,1.00508 -0.74737,0.64428 -1.12104,1.63646 -1.12104,2.97656 0,1.28856 0.37367,2.26786 1.12104,2.93791 0.77313,0.67005 1.7911,1.00508 3.05388,1.00508 z m 3.09253,-7.65403 -0.92776,-2.70597 h 8.00193 v 2.08746 z m 18.65748,16.93162 c -1.80398,0 -3.44045,-0.41232 -4.90939,-1.23701 -1.4432,-0.85045 -2.59001,-2.02303 -3.44044,-3.51776 -0.85045,-1.52049 -1.27568,-3.28581 -1.27568,-5.29596 0,-2.01015 0.42523,-3.76258 1.27568,-5.2573 0.8762,-1.52051 2.0359,-2.69309 3.47909,-3.51776 1.46895,-0.85045 3.1183,-1.27567 4.94804,-1.27567 1.82976,0 3.46624,0.42522 4.90941,1.27567 1.46895,0.82467 2.61577,1.99725 3.44045,3.51776 0.85045,1.49472 1.27565,3.24715 1.27565,5.2573 0,2.01015 -0.4252,3.77547 -1.27565,5.29596 -0.85045,1.49473 -2.01015,2.66731 -3.4791,3.51776 -1.46895,0.82469 -3.11831,1.23701 -4.94806,1.23701 z m 0,-3.09253 c 1.03084,0 1.97149,-0.25772 2.82194,-0.77313 0.87622,-0.51542 1.58492,-1.27567 2.12612,-2.28075 0.5412,-1.03084 0.81178,-2.33227 0.81178,-3.90432 0,-1.57204 -0.27058,-2.87348 -0.81178,-3.90432 -0.51543,-1.03085 -1.21125,-1.79109 -2.08745,-2.28074 -0.85046,-0.51543 -1.77824,-0.77314 -2.78331,-0.77314 -1.00506,0 -1.9457,0.25771 -2.82193,0.77314 -0.87621,0.48965 -1.58492,1.24989 -2.12611,2.28074 -0.5412,1.03084 -0.81179,2.33228 -0.81179,3.90432 0,1.57205 0.27059,2.87348 0.81179,3.90432 0.54119,1.00508 1.23701,1.76533 2.08746,2.28075 0.87622,0.51541 1.80398,0.77313 2.78328,0.77313 z m 25.00309,3.09253 c -2.6802,0 -4.99961,-0.57984 -6.95821,-1.73954 -1.93282,-1.18548 -3.42755,-2.82194 -4.48417,-4.9094 -1.03085,-2.11323 -1.54625,-4.56149 -1.54625,-7.34477 0,-2.75751 0.5283,-5.19288 1.5849,-7.30611 1.05663,-2.11323 2.55135,-3.7497 4.48418,-4.9094 1.93283,-1.18547 4.23935,-1.7782 6.91955,-1.7782 3.16984,0 5.74696,0.76024 7.73134,2.28073 1.98437,1.5205 3.24715,3.6595 3.78835,6.41701 h -4.2909 c -0.38655,-1.59781 -1.18547,-2.86059 -2.3967,-3.78835 -1.18548,-0.95353 -2.79617,-1.4303 -4.83209,-1.4303 -1.85552,0 -3.46622,0.42523 -4.83208,1.27568 -1.3401,0.85044 -2.38383,2.06168 -3.1312,3.63372 -0.72159,1.57204 -1.08238,3.44044 -1.08238,5.60522 0,2.19055 0.36079,4.07184 1.08238,5.64388 0.74737,1.57203 1.7911,2.78327 3.1312,3.63372 1.36586,0.82468 2.97656,1.23702 4.83208,1.23702 2.03592,0 3.67239,-0.45101 4.90939,-1.35299 1.23702,-0.92776 2.0488,-2.16477 2.43538,-3.71103 h 4.17492 c -0.5412,2.68018 -1.80398,4.78053 -3.78835,6.30103 -1.98438,1.49471 -4.5615,2.24208 -7.73134,2.24208 z m 23.46862,0 c -1.80397,0 -3.44043,-0.41232 -4.90938,-1.23701 -1.44318,-0.85045 -2.58999,-2.02303 -3.44044,-3.51776 -0.85045,-1.52049 -1.27568,-3.28581 -1.27568,-5.29596 0,-2.01015 0.42523,-3.76258 1.27568,-5.2573 0.87621,-1.52051 2.03591,-2.69309 3.47909,-3.51776 1.46895,-0.85045 3.1183,-1.27567 4.94805,-1.27567 1.82975,0 3.46622,0.42522 4.9094,1.27567 1.46895,0.82467 2.61576,1.99725 3.44045,3.51776 0.85043,1.49472 1.27566,3.24715 1.27566,5.2573 0,2.01015 -0.42523,3.77547 -1.27566,5.29596 -0.85045,1.49473 -2.01015,2.66731 -3.4791,3.51776 -1.46897,0.82469 -3.11832,1.23701 -4.94807,1.23701 z m 0,-3.09253 c 1.03085,0 1.9715,-0.25772 2.82194,-0.77313 0.87623,-0.51542 1.58493,-1.27567 2.12613,-2.28075 0.54118,-1.03084 0.81178,-2.33227 0.81178,-3.90432 0,-1.57204 -0.2706,-2.87348 -0.81178,-3.90432 -0.51543,-1.03085 -1.21125,-1.79109 -2.08747,-2.28074 -0.85045,-0.51543 -1.77821,-0.77314 -2.78328,-0.77314 -1.00508,0 -1.94572,0.25771 -2.82194,0.77314 -0.87621,0.48965 -1.58491,1.24989 -2.12611,2.28074 -0.54119,1.03084 -0.81179,2.33228 -0.81179,3.90432 0,1.57205 0.2706,2.87348 0.81179,3.90432 0.5412,1.00508 1.23701,1.76533 2.08746,2.28075 0.87621,0.51541 1.80397,0.77313 2.78327,0.77313 z m 12.20799,2.62866 v -19.17372 h 3.40179 l 0.34791,3.16985 h 0.15462 c 0.6185,-1.21124 1.45606,-2.11323 2.51268,-2.70596 1.08239,-0.61851 2.26786,-0.92776 3.55641,-0.92776 1.00508,0 1.90706,0.14173 2.70597,0.42522 0.82468,0.28348 1.53338,0.7087 2.12612,1.27567 0.59273,0.56696 1.08238,1.28855 1.46895,2.16478 h 0.15463 c 0.69582,-1.2628 1.58492,-2.21632 2.66731,-2.8606 1.08238,-0.67005 2.42248,-1.00507 4.02029,-1.00507 1.44319,0 2.69309,0.32213 3.7497,0.96641 1.08239,0.61851 1.93284,1.55916 2.551345,2.82194 0.6185,1.26278 0.927758,2.86059 0.927758,4.79343 v 11.05581 h -3.827013 v -10.66924 c 0,-1.85552 -0.37368,-3.26005 -1.12105,-4.21358 -0.74735,-0.9793 -1.88129,-1.46895 -3.40178,-1.46895 -0.9793,0 -1.82975,0.20616 -2.55134,0.6185 -0.72159,0.38656 -1.30144,1.00507 -1.73955,1.85552 -0.41234,0.82468 -0.61851,1.89418 -0.61851,3.20851 v 10.66924 h -3.82701 v -10.66924 c 0,-1.85552 -0.37368,-3.26005 -1.12104,-4.21358 -0.74737,-0.9793 -1.84263,-1.46895 -3.28582,-1.46895 -0.87622,0 -1.68801,0.2577 -2.43537,0.77313 -0.74737,0.48965 -1.36587,1.21123 -1.85552,2.16477 -0.46387,0.95353 -0.69581,2.11323 -0.69581,3.47911 v 9.93476 z m 33.451708,7.73132 v -26.90504 h 3.247168 l 0.270591,3.59508 h 0.154634 c 0.566958,-0.90199 1.211241,-1.64936 1.932833,-2.24209 0.747359,-0.59274 1.584925,-1.04374 2.512684,-1.35299 0.927758,-0.30925 1.919942,-0.46387 2.976559,-0.46387 1.82975,0 3.414675,0.43811 4.754775,1.31432 1.365867,0.87622 2.409601,2.07458 3.131192,3.59507 0.747359,1.5205 1.121042,3.23429 1.121042,5.14134 0,1.90707 -0.373683,3.62084 -1.121042,5.14134 -0.721591,1.52049 -1.778208,2.71885 -3.16985,3.59507 -1.391642,0.87622 -3.079651,1.31432 -5.064026,1.31432 -1.700892,0 -3.1183,-0.34791 -4.252234,-1.04373 -1.133925,-0.69581 -2.01015,-1.48184 -2.62865,-2.35804 v 10.66922 z m 10.050743,-10.55327 c 1.262784,0 2.345167,-0.28347 3.247159,-0.85045 0.927759,-0.56696 1.636467,-1.35297 2.126117,-2.35805 0.515425,-1.00507 0.773134,-2.19053 0.773134,-3.55641 0,-1.3401 -0.257709,-2.51269 -0.773134,-3.51775 -0.48965,-1.03085 -1.198358,-1.82975 -2.126117,-2.39672 -0.901992,-0.56697 -1.984375,-0.85044 -3.247159,-0.85044 -1.237016,0 -2.3194,0.28347 -3.247167,0.85044 -0.927758,0.56697 -1.64935,1.36587 -2.164767,2.39672 -0.489658,1.00506 -0.734483,2.17765 -0.734483,3.51775 0,1.36588 0.244825,2.55134 0.734483,3.55641 0.515417,1.00508 1.237009,1.79109 2.164767,2.35805 0.927767,0.56698 2.010151,0.85045 3.247167,0.85045 z"
       fill="#ffffff"
       id="path262"
       style="stroke-width:0.268449" /><g
       inkscape:label="logo"
       id="layer1-53"
       transform="translate(-376.91849,-32.76745)"><path
         id="rect11798-5"
         style="fill:#ffffff;fill-opacity:1;stroke:none;stroke-width:0.744639;stroke-linecap:square;stroke-opacity:0"
         d="M 14.287497,14.287499 V 28.574997 H -14.2875 V 42.862496 H 28.574996 V 31.502984 28.574997 14.287499 Z"
         transform="translate(91.423404,136.0429)"
         inkscape:label="white" /><rect
         style="fill:#00a5eb;fill-opacity:1;stroke:none;stroke-width:0.678364;stroke-linecap:square;stroke-opacity:0"
         id="rect184-6"
         width="14.2875"
         height="14.2875"
         x="0"
         y="0"
         transform="translate(91.423404,136.0429)"
         inkscape:label="acm-blue" /></g></g></svg>
