<svg xml:space="preserve" style="max-height: 500px" viewBox="65.95702399999999 40.97068907563025 464.3184 59.55042016806723" y="0px" x="0px" xmlns:xlink="http://www.w3.org/1999/xlink" xmlns="http://www.w3.org/2000/svg" id="katman_1" version="1.1" width="464.3184" height="59.55042016806723">
<style type="text/css">
	.st0{fill:#96A826;}
	.st1{fill:#FFFFFF;}
</style>
<g>
	<path d="M106.93,64.58c-0.6,1.09-1.39,1.93-2.37,2.53c-0.99,0.59-2.12,1-3.42,1.2c-1.29,0.21-2.64,0.31-4.04,0.31&#10;&#9;&#9;h-9.47V52h9.47c1.4,0,2.74,0.11,4.04,0.31c1.29,0.21,2.43,0.61,3.42,1.2c0.98,0.6,1.77,1.44,2.37,2.53&#10;&#9;&#9;c0.6,1.09,0.89,2.51,0.89,4.27C107.82,62.07,107.53,63.49,106.93,64.58 M118.57,53.71c-0.7-2.12-1.81-4.01-3.34-5.67&#10;&#9;&#9;c-1.53-1.65-3.51-2.99-5.94-4c-2.43-1.01-5.38-1.51-8.85-1.51H68.3V52h7.15v16.61H68.3v9.47h7.15v19.87h12.18V78.09h12.81&#10;&#9;&#9;c3.46,0,6.42-0.5,8.85-1.51c2.43-1.01,4.41-2.34,5.94-4c1.52-1.65,2.64-3.56,3.34-5.7c0.7-2.15,1.05-4.34,1.05-6.56&#10;&#9;&#9;C119.62,58.03,119.28,55.83,118.57,53.71" class="st0"/>
</g>
<path d="M149.82,76.53l-6.99-20.34h-0.15l-7.22,20.34H149.82z M149.12,42.53l20.73,55.43H157.2L153,85.61h-20.73&#10;&#9;l-4.35,12.35h-12.27l20.96-55.43H149.12z" class="st0"/>
<rect height="38.44" width="12.19" class="st0" y="59.52" x="227.6"/>
<rect height="11.45" width="12.19" class="st0" y="42.62" x="227.6"/>
<g>
	<path d="M275.73,88.49c1.19,0,2.33-0.12,3.42-0.35c1.09-0.23,2.04-0.62,2.87-1.16c0.83-0.54,1.49-1.28,1.98-2.21&#10;&#9;&#9;c0.49-0.93,0.74-2.12,0.74-3.57c0-2.85-0.8-4.88-2.41-6.1c-1.61-1.21-3.72-1.82-6.37-1.82h-13.28v15.22H275.73z M275.04,64.97&#10;&#9;&#9;c2.17,0,3.96-0.52,5.36-1.55c1.4-1.04,2.1-2.72,2.1-5.05c0-1.29-0.23-2.36-0.7-3.18c-0.47-0.83-1.09-1.47-1.86-1.94&#10;&#9;&#9;c-0.77-0.47-1.67-0.79-2.68-0.97c-1.01-0.18-2.06-0.27-3.15-0.27h-11.41v12.96H275.04z M276.59,42.53c2.64,0,5.05,0.23,7.22,0.7&#10;&#9;&#9;c2.17,0.46,4.03,1.23,5.59,2.29c1.56,1.06,2.76,2.47,3.61,4.23c0.85,1.76,1.28,3.94,1.28,6.52c0,2.79-0.63,5.12-1.9,6.99&#10;&#9;&#9;c-1.27,1.86-3.14,3.39-5.63,4.58c3.42,0.98,5.96,2.71,7.65,5.16c1.68,2.46,2.52,5.42,2.52,8.89c0,2.79-0.54,5.21-1.63,7.26&#10;&#9;&#9;c-1.09,2.05-2.55,3.72-4.39,5.01c-1.84,1.3-3.93,2.25-6.29,2.87c-2.35,0.62-4.77,0.93-7.26,0.93h-26.86V42.53H276.59z" class="st0"/>
	<path d="M344.19,93.73c-4.19,3.65-9.99,5.47-17.39,5.47c-7.51,0-13.32-1.81-17.43-5.44&#10;&#9;&#9;c-4.11-3.62-6.17-9.21-6.17-16.77V42.53h12.19V77c0,1.5,0.13,2.98,0.39,4.42c0.26,1.45,0.8,2.73,1.63,3.84&#10;&#9;&#9;c0.83,1.12,1.98,2.02,3.46,2.72c1.47,0.7,3.45,1.04,5.94,1.04c4.35,0,7.35-0.97,9-2.91c1.65-1.94,2.48-4.98,2.48-9.12V42.53h12.19&#10;&#9;&#9;V77C350.47,84.5,348.38,90.08,344.19,93.73" class="st0"/>
	<path d="M206.69,60.31c0,1.76-0.3,3.18-0.89,4.27c-0.6,1.09-1.39,1.93-2.37,2.52c-0.99,0.6-2.12,1-3.42,1.2&#10;&#9;&#9;c-1.29,0.21-2.64,0.31-4.04,0.31h-9.47V52h9.47c1.4,0,2.74,0.11,4.04,0.31c1.29,0.21,2.43,0.61,3.42,1.2&#10;&#9;&#9;c0.98,0.6,1.77,1.44,2.37,2.53C206.39,57.13,206.69,58.55,206.69,60.31 M198.44,78.09h0.02l1.03,2.45L198.44,78.09z M217.44,66.87&#10;&#9;&#9;c0.7-2.15,1.05-4.34,1.05-6.56c0-2.28-0.35-4.48-1.05-6.6c-0.7-2.12-1.81-4.01-3.34-5.67c-1.53-1.65-3.51-2.99-5.94-4&#10;&#9;&#9;c-2.43-1.01-5.38-1.51-8.85-1.51h-24.65V52h0v16.61h0v9.47h0v19.87h11.84V78.09h11.58l4.6,9.83l4.19,10.04h12.65l-10.1-21.98&#10;&#9;&#9;c1.86-0.92,3.43-2.05,4.68-3.41C215.63,70.92,216.74,69.02,217.44,66.87" class="st0"/>
	<path d="M491.35,90.41v-16.7h17.44c5.37,0,9.09,3.22,9.09,8.27c0,5.04-3.39,8.43-9.34,8.43H491.35z M491.35,50.24&#10;&#9;&#9;h16.62c5.12,0,8.76,3.14,8.76,7.85c0,5.12-3.55,8.52-8.85,8.52h-16.53V50.24z M516.56,69.5c4.05-0.66,8.76-4.88,8.76-11.9&#10;&#9;&#9;c0-8.93-6.28-14.96-16.45-14.96H482.5v55.39h26.95c11.74,0,17.53-6.28,17.53-15.21c0-7.77-5.04-12.4-10.42-12.98V69.5z&#10;&#9;&#9; M471.67,42.63h-8.85v30.92c0,10.33-5.87,17.11-14.55,17.11c-9.09,0-15.05-6.78-15.05-17.11V42.63h-8.85v30.92&#10;&#9;&#9;c0,15.29,9.51,25.63,23.89,25.63c14.05,0,23.39-10.33,23.39-25.63V42.63z M413.56,42.63h-8.85v23.48h-29.93V42.63h-8.85v55.39h8.85&#10;&#9;&#9;V74.21h29.93v23.81h8.85V42.63z" class="st1"/>
</g>
</svg>